<svg id="Capa_1" enable-background="new 0 0 510.107 510.107" height="512" viewBox="0 0 510.107 510.107" width="512" xmlns="http://www.w3.org/2000/svg"><g><path d="m459.142 381.438-60.07 65.64c-40.11 30.13-89.97 47.98-144 47.98-132.55 0-240-107.45-240-240s107.45-240 240-240c189.147 0 302.179 208.32 204.07 366.38z" fill="#f1f6ff"/><path d="m459.142 381.438-60.07 65.64c-40.11 30.13-89.97 47.98-144 47.98v-480c189.147 0 302.179 208.32 204.07 366.38z" fill="#dfe5f2"/><path d="m471.882 389.348-25.48-15.82c22.03-35.49 33.67-76.46 33.67-118.47 0-124.07-100.93-225-225-225s-225 100.93-225 225 100.93 225 225 225c49.14 0 95.82-15.55 134.99-44.97l18.02 23.98c-100.249 75.305-242.464 67.175-333.32-23.7-99.646-99.625-99.681-260.96 0-360.62 99.626-99.646 260.96-99.681 360.62 0 86.256 86.238 96.998 217.159 36.5 314.6z" fill="#c47e4e"/><path d="m390.062 435.088 18.02 23.98c-44.41 33.36-97.32 50.99-153.01 50.99v-30c49.14 0 95.82-15.55 134.99-44.97z" fill="#a05f4b"/><path d="m510.072 255.058c0 47.61-13.2 94.04-38.19 134.29l-25.48-15.82c22.03-35.49 33.67-76.46 33.67-118.47 0-124.07-100.93-225-225-225v-30c140.937 0 255 114.055 255 255z" fill="#a05f4b"/><path d="m240.072 111.058h30v56h-30z" fill="#f9bd2e"/><path d="m255.072 111.058h15v56h-15z" fill="#f79311"/><path d="m111.072 240.058h56v30h-56z" fill="#f9bd2e"/><path d="m343.072 240.058h56v30h-56z" fill="#f79311"/><path d="m414.072 255.058c0 41.19-15.69 80.24-44.17 109.98l-21.66-20.76c23.1-24.12 35.83-55.8 35.83-89.22 0-71.13-57.87-129-129-129s-129 57.87-129 129c0 33.42 12.73 65.1 35.83 89.22l-21.66 20.76c-28.48-29.74-44.17-68.79-44.17-109.98 0-87.67 71.33-159 159-159s159 71.33 159 159z" fill="#ffdd4a"/><path d="m414.072 255.058c0 41.19-15.69 80.24-44.17 109.98l-21.66-20.76c23.1-24.12 35.83-55.8 35.83-89.22 0-71.13-57.87-129-129-129v-30c87.67 0 159 71.33 159 159z" fill="#f9bd2e"/><path d="m223.072 352.058h64v30h-64z" fill="#ff415b"/><path d="m255.072 352.058h32v30h-32z" fill="#c83c50"/><path d="m207.072 416.058h96v30h-96z" fill="#ff415b"/><path d="m255.072 416.058h48v30h-48z" fill="#c83c50"/><path d="m224.385 172.058h181.373v30h-181.373z" fill="#c83c50" transform="matrix(.662 -.75 .75 .662 -33.649 299.549)"/><path d="m510.072 447.058c0 34.74-28.26 63-63 63s-63-28.26-63-63c0-31.34 42.209-79.284 63-102.46 20.823 23.211 63 71.129 63 102.46z" fill="#9ee2f8"/><path d="m510.072 447.058c0 34.74-28.26 63-63 63v-165.46c20.823 23.211 63 71.129 63 102.46z" fill="#8cbcff"/></g></svg>